<?xml version="1.0" encoding="UTF-8"?>
<svg id="Layer_1" xmlns="http://www.w3.org/2000/svg" version="1.1" viewBox="0 0 1000 1000">
  <!-- Generator: Adobe Illustrator 30.4.0, SVG Export Plug-In . SVG Version: 2.1.4 Build 226)  -->
  <defs>
    <style>
      .st0 {
        fill: #06286f;
      }
    </style>
  </defs>
  <g>
    <path class="st0" d="M99.83,805.85v10.85c0,13.07-6.54,20.54-19.14,20.54s-19.14-7.47-19.14-20.54v-42.48c0-13.07,6.54-20.54,19.14-20.54s19.14,7.47,19.14,20.54v7.94h-12.14v-8.75c0-5.84-2.57-8.05-6.65-8.05s-6.65,2.22-6.65,8.05v44.11c0,5.84,2.57,7.94,6.65,7.94s6.65-2.1,6.65-7.94v-11.67h12.14Z"/>
    <path class="st0" d="M107.65,754.62h12.84v70.02h21.12v11.67h-33.96v-81.69Z"/>
    <path class="st0" d="M159.46,754.62v63.02c0,5.84,2.57,7.94,6.65,7.94s6.65-2.1,6.65-7.94v-63.02h12.14v62.2c0,13.07-6.54,20.54-19.14,20.54s-19.14-7.47-19.14-20.54v-62.2h12.84Z"/>
    <path class="st0" d="M232.04,773.41v2.92c0,8.4-2.57,13.65-8.29,16.34v.23c6.89,2.68,9.57,8.75,9.57,17.39v6.65c0,12.6-6.65,19.37-19.49,19.37h-20.19v-81.69h19.37c13.3,0,19.02,6.19,19.02,18.79ZM206.49,766.29v21.59h5.02c4.78,0,7.7-2.1,7.7-8.64v-4.55c0-5.83-1.98-8.4-6.54-8.4h-6.19ZM206.49,799.55v25.09h7.35c4.32,0,6.65-1.98,6.65-8.05v-7.12c0-7.59-2.45-9.92-8.29-9.92h-5.72Z"/>
    <path class="st0" d="M259.12,754.62h20.31c12.84,0,19.14,7.12,19.14,20.19v41.31c0,13.07-6.3,20.19-19.14,20.19h-20.31v-81.69ZM271.95,766.29v58.35h7.24c4.08,0,6.54-2.1,6.54-7.94v-42.48c0-5.83-2.45-7.94-6.54-7.94h-7.24Z"/>
    <path class="st0" d="M319.56,789.05h17.62v11.67h-17.62v23.92h22.17v11.67h-35.01v-81.69h35.01v11.67h-22.17v22.76Z"/>
    <path class="st0" d="M387.01,821.26h.23l9.69-66.63h11.79l-12.6,81.69h-19.14l-12.6-81.69h12.95l9.69,66.63Z"/>
    <path class="st0" d="M427.51,789.05h17.62v11.67h-17.62v23.92h22.17v11.67h-35.01v-81.69h35.01v11.67h-22.17v22.76Z"/>
    <path class="st0" d="M457.61,754.62h12.84v70.02h21.12v11.67h-33.96v-81.69Z"/>
    <path class="st0" d="M538.72,836.31h-12.95l-2.22-14.82h-15.75l-2.22,14.82h-11.79l13.07-81.69h18.79l13.07,81.69ZM509.42,810.41h12.37l-6.07-41.31h-.23l-6.07,41.31Z"/>
    <path class="st0" d="M601.15,773.41v2.92c0,8.4-2.57,13.65-8.29,16.34v.23c6.88,2.68,9.57,8.75,9.57,17.39v6.65c0,12.6-6.65,19.37-19.49,19.37h-20.19v-81.69h19.37c13.3,0,19.02,6.19,19.02,18.79ZM575.59,766.29v21.59h5.02c4.79,0,7.7-2.1,7.7-8.64v-4.55c0-5.83-1.98-8.4-6.54-8.4h-6.19ZM575.59,799.55v25.09h7.35c4.32,0,6.65-1.98,6.65-8.05v-7.12c0-7.59-2.45-9.92-8.29-9.92h-5.72Z"/>
    <path class="st0" d="M622.97,789.05h17.62v11.67h-17.62v23.92h22.17v11.67h-35.01v-81.69h35.01v11.67h-22.17v22.76Z"/>
    <path class="st0" d="M664.74,777.15h-.23v59.17h-11.55v-81.69h16.11l12.95,48.9h.23v-48.9h11.44v81.69h-13.19l-15.75-59.17Z"/>
    <path class="st0" d="M702.9,754.62h12.84v81.69h-12.84v-81.69Z"/>
    <path class="st0" d="M762.3,805.85v10.85c0,13.07-6.54,20.54-19.14,20.54s-19.14-7.47-19.14-20.54v-42.48c0-13.07,6.54-20.54,19.14-20.54s19.14,7.47,19.14,20.54v7.94h-12.14v-8.75c0-5.84-2.57-8.05-6.65-8.05s-6.65,2.22-6.65,8.05v44.11c0,5.84,2.57,7.94,6.65,7.94s6.65-2.1,6.65-7.94v-11.67h12.14Z"/>
    <path class="st0" d="M811.66,836.31h-12.95l-2.22-14.82h-15.75l-2.22,14.82h-11.79l13.07-81.69h18.79l13.07,81.69ZM782.37,810.41h12.37l-6.07-41.31h-.23l-6.07,41.31Z"/>
    <path class="st0" d="M834.88,753.69c12.49,0,18.91,7.47,18.91,20.54v2.57h-12.14v-3.38c0-5.84-2.33-8.05-6.42-8.05s-6.42,2.22-6.42,8.05,2.57,10.39,10.97,17.74c10.74,9.45,14.12,16.22,14.12,25.56,0,13.07-6.54,20.54-19.14,20.54s-19.14-7.47-19.14-20.54v-5.02h12.14v5.83c0,5.84,2.57,7.94,6.65,7.94s6.65-2.1,6.65-7.94-2.57-10.38-10.97-17.74c-10.74-9.45-14.12-16.22-14.12-25.56,0-13.07,6.42-20.54,18.91-20.54Z"/>
    <path class="st0" d="M861.25,754.62h12.84v81.69h-12.84v-81.69Z"/>
    <path class="st0" d="M910.5,812.62h.23l8.64-58h17.86v81.69h-12.14v-58.58h-.23l-8.63,58.58h-12.14l-9.34-57.77h-.23v57.77h-11.2v-81.69h17.86l9.34,58Z"/>
  </g>
  <g>
    <polygon class="st0" points="148.63 159.5 295.39 315.5 306.42 266.8 324.98 329.18 374.51 242.28 343.06 365.06 938.04 429.12 61.57 127.76 61.57 426.43 263.28 370.84 148.63 159.5"/>
    <polygon class="st0" points="354.2 427.33 397.91 574.17 249.88 516.6 270.14 427.07 61.57 426.43 61.57 730.48 938.04 429.12 354.2 427.33"/>
  </g>
</svg>