<?xml version="1.0" encoding="UTF-8"?>
<svg id="Layer_1" xmlns="http://www.w3.org/2000/svg" version="1.1" viewBox="0 0 1000 1000">
  <!-- Generator: Adobe Illustrator 30.4.0, SVG Export Plug-In . SVG Version: 2.1.4 Build 226)  -->
  <defs>
    <style>
      .st0 {
        fill: #fff;
      }

      .st1 {
        fill: #06286f;
      }
    </style>
  </defs>
  <rect class="st1" width="1000" height="1000"/>
  <g>
    <path class="st0" d="M202.84,722.59v8.06c0,9.7-4.86,15.25-14.21,15.25s-14.21-5.55-14.21-15.25v-31.54c0-9.7,4.86-15.25,14.21-15.25s14.21,5.55,14.21,15.25v5.9h-9.01v-6.5c0-4.34-1.91-5.98-4.94-5.98s-4.94,1.65-4.94,5.98v32.75c0,4.34,1.91,5.9,4.94,5.9s4.94-1.56,4.94-5.9v-8.66h9.01Z"/>
    <path class="st0" d="M208.65,684.55h9.53v51.99h15.68v8.66h-25.21v-60.65Z"/>
    <path class="st0" d="M247.11,684.55v46.79c0,4.34,1.91,5.9,4.94,5.9s4.94-1.56,4.94-5.9v-46.79h9.01v46.18c0,9.7-4.86,15.25-14.21,15.25s-14.21-5.55-14.21-15.25v-46.18h9.53Z"/>
    <path class="st0" d="M301,698.5v2.17c0,6.24-1.91,10.13-6.15,12.13v.17c5.12,1.99,7.11,6.5,7.11,12.91v4.94c0,9.35-4.94,14.38-14.47,14.38h-14.99v-60.65h14.38c9.87,0,14.12,4.6,14.12,13.95h0ZM282.03,693.21v16.03h3.73c3.55,0,5.72-1.56,5.72-6.41v-3.38c0-4.33-1.47-6.24-4.86-6.24h-4.6,0ZM282.03,717.91v18.63h5.46c3.21,0,4.94-1.47,4.94-5.98v-5.29c0-5.64-1.82-7.37-6.15-7.37h-4.25,0Z"/>
    <path class="st0" d="M321.11,684.55h15.08c9.53,0,14.21,5.29,14.21,14.99v30.67c0,9.7-4.68,14.99-14.21,14.99h-15.08v-60.65ZM330.63,693.21v43.32h5.38c3.03,0,4.86-1.56,4.86-5.9v-31.54c0-4.33-1.82-5.9-4.86-5.9h-5.38Z"/>
    <path class="st0" d="M365.98,710.11h13.08v8.66h-13.08v17.76h16.46v8.66h-25.99v-60.65h25.99v8.66h-16.46v16.9h0Z"/>
    <path class="st0" d="M416.06,734.03h.17l7.19-49.47h8.75l-9.35,60.65h-14.21l-9.35-60.65h9.61l7.19,49.47h0Z"/>
    <path class="st0" d="M446.13,710.11h13.08v8.66h-13.08v17.76h16.46v8.66h-25.99v-60.65h25.99v8.66h-16.46v16.9h0Z"/>
    <path class="st0" d="M468.47,684.55h9.53v51.99h15.68v8.66h-25.21v-60.65Z"/>
    <path class="st0" d="M528.69,745.2h-9.61l-1.65-11h-11.69l-1.65,11h-8.75l9.7-60.65h13.95l9.7,60.65ZM506.94,725.97h9.18l-4.51-30.67h-.17l-4.51,30.67h0Z"/>
    <path class="st0" d="M575.05,698.5v2.17c0,6.24-1.91,10.13-6.15,12.13v.17c5.11,1.99,7.11,6.5,7.11,12.91v4.94c0,9.35-4.94,14.38-14.47,14.38h-14.99v-60.65h14.38c9.87,0,14.12,4.6,14.12,13.95h0ZM556.07,693.21v16.03h3.73c3.56,0,5.72-1.56,5.72-6.41v-3.38c0-4.33-1.47-6.24-4.86-6.24h-4.6,0ZM556.07,717.91v18.63h5.46c3.21,0,4.94-1.47,4.94-5.98v-5.29c0-5.64-1.82-7.37-6.15-7.37h-4.25,0Z"/>
    <path class="st0" d="M591.25,710.11h13.08v8.66h-13.08v17.76h16.46v8.66h-25.99v-60.65h25.99v8.66h-16.46v16.9h0Z"/>
    <path class="st0" d="M622.26,701.28h-.17v43.93h-8.58v-60.65h11.96l9.61,36.31h.17v-36.31h8.49v60.65h-9.79l-11.69-43.93h0Z"/>
    <path class="st0" d="M650.59,684.55h9.53v60.65h-9.53v-60.65Z"/>
    <path class="st0" d="M694.69,722.59v8.06c0,9.7-4.86,15.25-14.21,15.25s-14.21-5.55-14.21-15.25v-31.54c0-9.7,4.86-15.25,14.21-15.25s14.21,5.55,14.21,15.25v5.9h-9.01v-6.5c0-4.34-1.91-5.98-4.94-5.98s-4.94,1.65-4.94,5.98v32.75c0,4.34,1.91,5.9,4.94,5.9s4.94-1.56,4.94-5.9v-8.66h9.01Z"/>
    <path class="st0" d="M731.34,745.2h-9.61l-1.65-11h-11.69l-1.65,11h-8.75l9.7-60.65h13.95l9.7,60.65h0ZM709.59,725.97h9.18l-4.51-30.67h-.17l-4.51,30.67Z"/>
    <path class="st0" d="M748.58,683.86c9.27,0,14.04,5.55,14.04,15.25v1.91h-9.01v-2.51c0-4.34-1.73-5.98-4.77-5.98s-4.77,1.65-4.77,5.98,1.91,7.71,8.14,13.17c7.97,7.02,10.48,12.04,10.48,18.98,0,9.7-4.86,15.25-14.21,15.25s-14.21-5.55-14.21-15.25v-3.73h9.01v4.33c0,4.34,1.91,5.9,4.94,5.9s4.94-1.56,4.94-5.9-1.91-7.71-8.14-13.17c-7.97-7.02-10.48-12.04-10.48-18.98,0-9.7,4.77-15.25,14.04-15.25Z"/>
    <path class="st0" d="M768.16,684.55h9.53v60.65h-9.53v-60.65Z"/>
    <path class="st0" d="M804.72,727.61h.17l6.41-43.06h13.26v60.65h-9.01v-43.49h-.17l-6.41,43.49h-9.01l-6.93-42.89h-.17v42.89h-8.32v-60.65h13.26l6.93,43.06h-.01Z"/>
  </g>
  <g>
    <polygon class="st0" points="239.07 242.71 348.04 358.53 356.22 322.37 370 368.68 406.78 304.17 383.43 395.32 825.17 442.88 174.44 219.14 174.44 440.89 324.2 399.61 239.07 242.71"/>
    <polygon class="st0" points="391.7 441.55 424.15 550.58 314.25 507.83 329.29 441.36 174.44 440.89 174.44 666.63 825.17 442.88 391.7 441.55"/>
  </g>
</svg>